<?xml version="1.0" encoding="UTF-8" standalone="no"?>
<!DOCTYPE svg PUBLIC "-//W3C//DTD SVG 1.1//EN"
 "http://www.w3.org/Graphics/SVG/1.1/DTD/svg11.dtd">
<!-- Generated by graphviz version 2.40.1 (20161225.0304)
 -->
<!-- Title: %3 Pages: 1 -->
<svg width="791pt" height="1259pt"
 viewBox="0.00 0.00 791.00 1259.00" xmlns="http://www.w3.org/2000/svg" xmlns:xlink="http://www.w3.org/1999/xlink">
<g id="graph0" class="graph" transform="scale(1 1) rotate(0) translate(4 1255)">
<title>%3</title>
<polygon fill="#ffffff" stroke="transparent" points="-4,4 -4,-1255 787,-1255 787,4 -4,4"/>
<!-- poweron -->
<g id="node1" class="node">
<title>poweron</title>
<polygon fill="none" stroke="#000000" points="584.0471,-1051.5442 584.0471,-1066.4558 557.6591,-1077 520.3409,-1077 493.9529,-1066.4558 493.9529,-1051.5442 520.3409,-1041 557.6591,-1041 584.0471,-1051.5442"/>
<text text-anchor="middle" x="539" y="-1055.3" font-family="Times,serif" font-size="14.00" fill="#000000">poweron</text>
</g>
<!-- BuildInputRecordpoweron0 -->
<g id="node2" class="node">
<title>BuildInputRecordpoweron0</title>
<polygon fill="none" stroke="#7b1fa2" points="368,-990 254,-990 254,-954 368,-954 368,-990"/>
<text text-anchor="middle" x="311" y="-968.3" font-family="Times,serif" font-size="14.00" fill="#000000">BuildInputRecord</text>
</g>
<!-- poweron&#45;&gt;BuildInputRecordpoweron0 -->
<g id="edge1" class="edge">
<title>poweron&#45;&gt;BuildInputRecordpoweron0</title>
<path fill="none" stroke="#000000" d="M493.8144,-1055.9596C441.1827,-1051.5926 358.3266,-1041.8988 334,-1023 326.4766,-1017.1552 321.3418,-1008.3023 317.8698,-999.6045"/>
<polygon fill="#000000" stroke="#000000" points="321.145,-998.3641 314.6176,-990.0188 314.5162,-1000.6132 321.145,-998.3641"/>
<text text-anchor="middle" x="386.5" y="-1011.8" font-family="Times,serif" font-size="14.00" fill="#000000">Key input Value: *</text>
</g>
<!-- BuildInputRecordpoweron1 -->
<g id="node5" class="node">
<title>BuildInputRecordpoweron1</title>
<polygon fill="none" stroke="#7b1fa2" points="535,-936 421,-936 421,-900 535,-900 535,-936"/>
<text text-anchor="middle" x="478" y="-914.3" font-family="Times,serif" font-size="14.00" fill="#000000">BuildInputRecord</text>
</g>
<!-- poweron&#45;&gt;BuildInputRecordpoweron1 -->
<g id="edge4" class="edge">
<title>poweron&#45;&gt;BuildInputRecordpoweron1</title>
<path fill="none" stroke="#000000" d="M498.5131,-1049.6907C484.4925,-1044.317 470.2395,-1035.9479 462,-1023 447.2536,-999.8271 455.085,-968.0718 464.2125,-945.5672"/>
<polygon fill="#000000" stroke="#000000" points="467.49,-946.8072 468.2807,-936.2419 461.074,-944.0081 467.49,-946.8072"/>
<text text-anchor="middle" x="529" y="-1011.8" font-family="Times,serif" font-size="14.00" fill="#000000">Key blanked Value: true</text>
</g>
<!-- BuildInputRecordpoweron2 -->
<g id="node8" class="node">
<title>BuildInputRecordpoweron2</title>
<polygon fill="none" stroke="#7b1fa2" points="672,-936 558,-936 558,-900 672,-900 672,-936"/>
<text text-anchor="middle" x="615" y="-914.3" font-family="Times,serif" font-size="14.00" fill="#000000">BuildInputRecord</text>
</g>
<!-- poweron&#45;&gt;BuildInputRecordpoweron2 -->
<g id="edge7" class="edge">
<title>poweron&#45;&gt;BuildInputRecordpoweron2</title>
<path fill="none" stroke="#000000" d="M570.0081,-1045.6557C579.7315,-1040.0149 589.5875,-1032.5103 596,-1023 611.2194,-1000.4283 615.2267,-969.1712 615.8791,-946.638"/>
<polygon fill="#000000" stroke="#000000" points="619.3812,-946.382 615.9643,-936.3533 612.3815,-946.3239 619.3812,-946.382"/>
<text text-anchor="middle" x="677" y="-1011.8" font-family="Times,serif" font-size="14.00" fill="#000000">Key power Value: standby</text>
</g>
<!-- InputStorepoweron0 -->
<g id="node3" class="node">
<title>InputStorepoweron0</title>
<polygon fill="none" stroke="#00bcd4" points="307,-882 233,-882 233,-846 307,-846 307,-882"/>
<text text-anchor="middle" x="270" y="-860.3" font-family="Times,serif" font-size="14.00" fill="#000000">InputStore</text>
</g>
<!-- BuildInputRecordpoweron0&#45;&gt;InputStorepoweron0 -->
<g id="edge2" class="edge">
<title>BuildInputRecordpoweron0&#45;&gt;InputStorepoweron0</title>
<path fill="none" stroke="#000000" d="M304.0449,-953.6793C297.5857,-936.6649 287.8793,-911.0967 280.4812,-891.6091"/>
<polygon fill="#000000" stroke="#000000" points="283.6737,-890.1569 276.8524,-882.0502 277.1294,-892.6414 283.6737,-890.1569"/>
</g>
<!-- inputactive -->
<g id="node4" class="node">
<title>inputactive</title>
<polygon fill="none" stroke="#000000" points="314.3384,-748.5442 314.3384,-763.4558 282.5077,-774 237.4923,-774 205.6616,-763.4558 205.6616,-748.5442 237.4923,-738 282.5077,-738 314.3384,-748.5442"/>
<text text-anchor="middle" x="260" y="-752.3" font-family="Times,serif" font-size="14.00" fill="#000000">inputactive</text>
</g>
<!-- InputStorepoweron0&#45;&gt;inputactive -->
<g id="edge3" class="edge">
<title>InputStorepoweron0&#45;&gt;inputactive</title>
<path fill="none" stroke="#000000" d="M268.3036,-845.6793C266.7427,-828.821 264.4042,-803.5651 262.6062,-784.147"/>
<polygon fill="#000000" stroke="#000000" points="266.0785,-783.6848 261.6713,-774.0502 259.1083,-784.3303 266.0785,-783.6848"/>
</g>
<!-- BuildInputRecordinputactive0 -->
<g id="node12" class="node">
<title>BuildInputRecordinputactive0</title>
<polygon fill="none" stroke="#7b1fa2" points="549,-666 435,-666 435,-630 549,-630 549,-666"/>
<text text-anchor="middle" x="492" y="-644.3" font-family="Times,serif" font-size="14.00" fill="#000000">BuildInputRecord</text>
</g>
<!-- inputactive&#45;&gt;BuildInputRecordinputactive0 -->
<g id="edge11" class="edge">
<title>inputactive&#45;&gt;BuildInputRecordinputactive0</title>
<path fill="none" stroke="#000000" d="M314.199,-751.6444C346.7949,-747.1921 388.1846,-738.1917 421,-720 423.8931,-718.3962 447.9968,-693.7167 467.3288,-673.6932"/>
<polygon fill="#000000" stroke="#000000" points="470.0304,-675.9337 474.4502,-666.3048 464.9904,-671.0759 470.0304,-675.9337"/>
<text text-anchor="middle" x="509.5" y="-698.3" font-family="Times,serif" font-size="14.00" fill="#000000">Key input Value: *</text>
</g>
<!-- BuildInputRecordinputactive1 -->
<g id="node14" class="node">
<title>BuildInputRecordinputactive1</title>
<polygon fill="none" stroke="#7b1fa2" points="373,-666 259,-666 259,-630 373,-630 373,-666"/>
<text text-anchor="middle" x="316" y="-644.3" font-family="Times,serif" font-size="14.00" fill="#000000">BuildInputRecord</text>
</g>
<!-- inputactive&#45;&gt;BuildInputRecordinputactive1 -->
<g id="edge14" class="edge">
<title>inputactive&#45;&gt;BuildInputRecordinputactive1</title>
<path fill="none" stroke="#000000" d="M255.0347,-737.9421C251.8733,-722.6113 249.8881,-700.532 259,-684 261.3482,-679.7397 264.4363,-675.9138 267.9622,-672.4936"/>
<polygon fill="#000000" stroke="#000000" points="270.2741,-675.1231 275.7178,-666.0337 265.794,-669.7445 270.2741,-675.1231"/>
<text text-anchor="middle" x="326" y="-698.3" font-family="Times,serif" font-size="14.00" fill="#000000">Key blanked Value: true</text>
</g>
<!-- BuildInputRecordinputactive2 -->
<g id="node16" class="node">
<title>BuildInputRecordinputactive2</title>
<polygon fill="none" stroke="#7b1fa2" points="114,-612 0,-612 0,-576 114,-576 114,-612"/>
<text text-anchor="middle" x="57" y="-590.3" font-family="Times,serif" font-size="14.00" fill="#000000">BuildInputRecord</text>
</g>
<!-- inputactive&#45;&gt;BuildInputRecordinputactive2 -->
<g id="edge17" class="edge">
<title>inputactive&#45;&gt;BuildInputRecordinputactive2</title>
<path fill="none" stroke="#000000" d="M205.5329,-753.2641C154.4351,-749.4562 83.2232,-740.535 65,-720 41.5208,-693.5422 44.465,-650.3693 49.8487,-622.0702"/>
<polygon fill="#000000" stroke="#000000" points="53.3296,-622.5272 51.9814,-612.0185 46.482,-621.0742 53.3296,-622.5272"/>
<text text-anchor="middle" x="138" y="-698.3" font-family="Times,serif" font-size="14.00" fill="#000000">Key power Value: standby</text>
</g>
<!-- EnterBlankpoweron1 -->
<g id="node6" class="node">
<title>EnterBlankpoweron1</title>
<polygon fill="none" stroke="#00bcd4" points="578,-828 500,-828 500,-792 578,-792 578,-828"/>
<text text-anchor="middle" x="539" y="-806.3" font-family="Times,serif" font-size="14.00" fill="#000000">EnterBlank</text>
</g>
<!-- BuildInputRecordpoweron1&#45;&gt;EnterBlankpoweron1 -->
<g id="edge5" class="edge">
<title>BuildInputRecordpoweron1&#45;&gt;EnterBlankpoweron1</title>
<path fill="none" stroke="#000000" d="M488.3478,-899.6793C498.0901,-882.4307 512.7975,-856.3914 523.8584,-836.8081"/>
<polygon fill="#000000" stroke="#000000" points="526.9345,-838.4786 528.805,-828.0502 520.8395,-835.036 526.9345,-838.4786"/>
</g>
<!-- blank -->
<g id="node7" class="node">
<title>blank</title>
<polygon fill="none" stroke="#000000" points="468.1284,-424.5442 468.1284,-439.4558 448.7222,-450 421.2778,-450 401.8716,-439.4558 401.8716,-424.5442 421.2778,-414 448.7222,-414 468.1284,-424.5442"/>
<text text-anchor="middle" x="435" y="-428.3" font-family="Times,serif" font-size="14.00" fill="#000000">blank</text>
</g>
<!-- EnterBlankpoweron1&#45;&gt;blank -->
<g id="edge6" class="edge">
<title>EnterBlankpoweron1&#45;&gt;blank</title>
<path fill="none" stroke="#000000" d="M549.5851,-791.952C560.829,-771.04 577,-735.1942 577,-702 577,-702 577,-702 577,-540 577,-488.96 518.161,-458.8789 476.2332,-443.9227"/>
<polygon fill="#000000" stroke="#000000" points="477.1089,-440.5236 466.5144,-440.6143 474.853,-447.1502 477.1089,-440.5236"/>
</g>
<!-- InputStoreblank00 -->
<g id="node19" class="node">
<title>InputStoreblank00</title>
<polygon fill="none" stroke="#000000" points="481,-342 407,-342 407,-306 481,-306 481,-342"/>
<text text-anchor="middle" x="444" y="-320.3" font-family="Times,serif" font-size="14.00" fill="#000000">InputStore</text>
</g>
<!-- blank&#45;&gt;InputStoreblank00 -->
<g id="edge21" class="edge">
<title>blank&#45;&gt;InputStoreblank00</title>
<path fill="none" stroke="#000000" d="M436.5267,-413.6793C437.9316,-396.821 440.0362,-371.5651 441.6544,-352.147"/>
<polygon fill="#000000" stroke="#000000" points="445.1532,-352.3063 442.4958,-342.0502 438.1774,-351.7249 445.1532,-352.3063"/>
<text text-anchor="middle" x="493.5" y="-374.3" font-family="Times,serif" font-size="14.00" fill="#000000">Key input Value: *</text>
</g>
<!-- BuildBlankedRecordblank1 -->
<g id="node20" class="node">
<title>BuildBlankedRecordblank1</title>
<polygon fill="none" stroke="#7b1fa2" points="638.5,-342 507.5,-342 507.5,-306 638.5,-306 638.5,-342"/>
<text text-anchor="middle" x="573" y="-320.3" font-family="Times,serif" font-size="14.00" fill="#000000">BuildBlankedRecord</text>
</g>
<!-- blank&#45;&gt;BuildBlankedRecordblank1 -->
<g id="edge23" class="edge">
<title>blank&#45;&gt;BuildBlankedRecordblank1</title>
<path fill="none" stroke="#000000" d="M468.0681,-425.2074C497.7392,-418.4956 538.3536,-407.5788 550,-396 561.6068,-384.4605 567.3633,-367.0743 570.215,-352.2777"/>
<polygon fill="#000000" stroke="#000000" points="573.7223,-352.5046 571.8202,-342.0819 566.8075,-351.4159 573.7223,-352.5046"/>
<text text-anchor="middle" x="638.5" y="-374.3" font-family="Times,serif" font-size="14.00" fill="#000000">Key blanked Value: false</text>
</g>
<!-- BuildBlankedRecordblank2 -->
<g id="node22" class="node">
<title>BuildBlankedRecordblank2</title>
<polygon fill="none" stroke="#7b1fa2" points="387.5,-342 256.5,-342 256.5,-306 387.5,-306 387.5,-342"/>
<text text-anchor="middle" x="322" y="-320.3" font-family="Times,serif" font-size="14.00" fill="#000000">BuildBlankedRecord</text>
</g>
<!-- blank&#45;&gt;BuildBlankedRecordblank2 -->
<g id="edge26" class="edge">
<title>blank&#45;&gt;BuildBlankedRecordblank2</title>
<path fill="none" stroke="#000000" d="M401.8834,-428.831C361.9576,-424.2462 298.4049,-414.2429 284,-396 274.0846,-383.4427 277.6779,-374.698 284,-360 285.571,-356.3477 287.7148,-352.8923 290.1899,-349.6732"/>
<polygon fill="#000000" stroke="#000000" points="292.8323,-351.9688 296.8868,-342.1804 287.6132,-347.304 292.8323,-351.9688"/>
<text text-anchor="middle" x="357" y="-374.3" font-family="Times,serif" font-size="14.00" fill="#000000">Key power Value: standby</text>
</g>
<!-- BuildUnblankedRecordpoweron20 -->
<g id="node9" class="node">
<title>BuildUnblankedRecordpoweron20</title>
<polygon fill="none" stroke="#000000" points="760.5,-828 615.5,-828 615.5,-792 760.5,-792 760.5,-828"/>
<text text-anchor="middle" x="688" y="-806.3" font-family="Times,serif" font-size="14.00" fill="#000000">BuildUnblankedRecord</text>
</g>
<!-- BuildInputRecordpoweron2&#45;&gt;BuildUnblankedRecordpoweron20 -->
<g id="edge8" class="edge">
<title>BuildInputRecordpoweron2&#45;&gt;BuildUnblankedRecordpoweron20</title>
<path fill="none" stroke="#000000" d="M612.6392,-899.8827C611.566,-884.3081 612.3986,-861.9081 623,-846 625.9207,-841.6173 629.5631,-837.7168 633.6228,-834.2563"/>
<polygon fill="#000000" stroke="#000000" points="635.9247,-836.9063 641.8638,-828.1326 631.7496,-831.2877 635.9247,-836.9063"/>
<text text-anchor="middle" x="696" y="-860.3" font-family="Times,serif" font-size="14.00" fill="#000000">Key power Value: standby</text>
</g>
<!-- StandbyEnterpoweron20 -->
<g id="node10" class="node">
<title>StandbyEnterpoweron20</title>
<polygon fill="none" stroke="#00bcd4" points="754,-720 664,-720 664,-684 754,-684 754,-720"/>
<text text-anchor="middle" x="709" y="-698.3" font-family="Times,serif" font-size="14.00" fill="#000000">StandbyEnter</text>
</g>
<!-- BuildUnblankedRecordpoweron20&#45;&gt;StandbyEnterpoweron20 -->
<g id="edge9" class="edge">
<title>BuildUnblankedRecordpoweron20&#45;&gt;StandbyEnterpoweron20</title>
<path fill="none" stroke="#000000" d="M691.5624,-791.6793C694.8555,-774.7429 699.7967,-749.3311 703.5793,-729.8777"/>
<polygon fill="#000000" stroke="#000000" points="707.0171,-730.5344 705.4902,-720.0502 700.1458,-729.1982 707.0171,-730.5344"/>
</g>
<!-- powerstandby -->
<g id="node11" class="node">
<title>powerstandby</title>
<polygon fill="none" stroke="#000000" points="500.9434,-170.5442 500.9434,-185.4558 462.9004,-196 409.0996,-196 371.0566,-185.4558 371.0566,-170.5442 409.0996,-160 462.9004,-160 500.9434,-170.5442"/>
<text text-anchor="middle" x="436" y="-174.3" font-family="Times,serif" font-size="14.00" fill="#000000">powerstandby</text>
</g>
<!-- StandbyEnterpoweron20&#45;&gt;powerstandby -->
<g id="edge10" class="edge">
<title>StandbyEnterpoweron20&#45;&gt;powerstandby</title>
<path fill="none" stroke="#000000" d="M715.8314,-683.9503C723.2334,-662.7406 734,-626.3329 734,-594 734,-594 734,-594 734,-251 734,-205.1603 599.2954,-187.9614 511.0184,-181.612"/>
<polygon fill="#000000" stroke="#000000" points="511.2457,-178.1194 501.0291,-180.9252 510.7655,-185.1029 511.2457,-178.1194"/>
</g>
<!-- StandbyExitpowerstandby0 -->
<g id="node24" class="node">
<title>StandbyExitpowerstandby0</title>
<polygon fill="none" stroke="#7b1fa2" points="723.5,-109 640.5,-109 640.5,-73 723.5,-73 723.5,-109"/>
<text text-anchor="middle" x="682" y="-87.3" font-family="Times,serif" font-size="14.00" fill="#000000">StandbyExit</text>
</g>
<!-- powerstandby&#45;&gt;StandbyExitpowerstandby0 -->
<g id="edge29" class="edge">
<title>powerstandby&#45;&gt;StandbyExitpowerstandby0</title>
<path fill="none" stroke="#000000" d="M478.9785,-164.4017C499.3588,-157.8342 524.0062,-149.7189 546,-142 574.1664,-132.1148 605.3639,-120.4666 630.7666,-110.7996"/>
<polygon fill="#000000" stroke="#000000" points="632.1055,-114.035 640.2004,-107.1995 629.6096,-107.495 632.1055,-114.035"/>
<text text-anchor="middle" x="647" y="-130.8" font-family="Times,serif" font-size="14.00" fill="#000000">Key power Value: on</text>
</g>
<!-- InputStorepowerstandby10 -->
<g id="node26" class="node">
<title>InputStorepowerstandby10</title>
<polygon fill="none" stroke="#000000" points="474,-109 400,-109 400,-73 474,-73 474,-109"/>
<text text-anchor="middle" x="437" y="-87.3" font-family="Times,serif" font-size="14.00" fill="#000000">InputStore</text>
</g>
<!-- powerstandby&#45;&gt;InputStorepowerstandby10 -->
<g id="edge32" class="edge">
<title>powerstandby&#45;&gt;InputStorepowerstandby10</title>
<path fill="none" stroke="#000000" d="M436.2072,-159.9735C436.3426,-148.1918 436.5223,-132.5607 436.6763,-119.1581"/>
<polygon fill="#000000" stroke="#000000" points="440.1778,-119.043 436.7931,-109.0034 433.1783,-118.9624 440.1778,-119.043"/>
<text text-anchor="middle" x="489.5" y="-130.8" font-family="Times,serif" font-size="14.00" fill="#000000">Key input Value: *</text>
</g>
<!-- InputStoreinputactive0 -->
<g id="node13" class="node">
<title>InputStoreinputactive0</title>
<polygon fill="none" stroke="#00bcd4" points="476,-558 402,-558 402,-522 476,-522 476,-558"/>
<text text-anchor="middle" x="439" y="-536.3" font-family="Times,serif" font-size="14.00" fill="#000000">InputStore</text>
</g>
<!-- BuildInputRecordinputactive0&#45;&gt;InputStoreinputactive0 -->
<g id="edge12" class="edge">
<title>BuildInputRecordinputactive0&#45;&gt;InputStoreinputactive0</title>
<path fill="none" stroke="#000000" d="M483.0093,-629.6793C474.583,-612.5088 461.8817,-586.6268 452.2865,-567.0743"/>
<polygon fill="#000000" stroke="#000000" points="455.4056,-565.4855 447.8579,-558.0502 449.1215,-568.5694 455.4056,-565.4855"/>
</g>
<!-- InputStoreinputactive0&#45;&gt;inputactive -->
<g id="edge13" class="edge">
<title>InputStoreinputactive0&#45;&gt;inputactive</title>
<path fill="none" stroke="#000000" d="M436.694,-558.1589C431.1367,-599.117 415.7586,-696.9172 393,-720 382.6263,-730.5215 351.2936,-739.2716 321.6455,-745.5098"/>
<polygon fill="#000000" stroke="#000000" points="320.7936,-742.1112 311.6882,-747.528 322.1842,-748.9717 320.7936,-742.1112"/>
</g>
<!-- EnterBlankinputactive1 -->
<g id="node15" class="node">
<title>EnterBlankinputactive1</title>
<polygon fill="none" stroke="#00bcd4" points="377,-558 299,-558 299,-522 377,-522 377,-558"/>
<text text-anchor="middle" x="338" y="-536.3" font-family="Times,serif" font-size="14.00" fill="#000000">EnterBlank</text>
</g>
<!-- BuildInputRecordinputactive1&#45;&gt;EnterBlankinputactive1 -->
<g id="edge15" class="edge">
<title>BuildInputRecordinputactive1&#45;&gt;EnterBlankinputactive1</title>
<path fill="none" stroke="#000000" d="M319.732,-629.6793C323.182,-612.7429 328.3585,-587.3311 332.3212,-567.8777"/>
<polygon fill="#000000" stroke="#000000" points="335.7566,-568.5476 334.3231,-558.0502 328.8974,-567.1503 335.7566,-568.5476"/>
</g>
<!-- EnterBlankinputactive1&#45;&gt;blank -->
<g id="edge16" class="edge">
<title>EnterBlankinputactive1&#45;&gt;blank</title>
<path fill="none" stroke="#000000" d="M354.4547,-521.6793C370.4878,-503.828 394.9779,-476.5607 412.7445,-456.7794"/>
<polygon fill="#000000" stroke="#000000" points="415.3506,-459.1156 419.4287,-449.3371 410.1427,-454.4382 415.3506,-459.1156"/>
</g>
<!-- BuildUnblankedRecordinputactive20 -->
<g id="node17" class="node">
<title>BuildUnblankedRecordinputactive20</title>
<polygon fill="none" stroke="#000000" points="166.5,-504 21.5,-504 21.5,-468 166.5,-468 166.5,-504"/>
<text text-anchor="middle" x="94" y="-482.3" font-family="Times,serif" font-size="14.00" fill="#000000">BuildUnblankedRecord</text>
</g>
<!-- BuildInputRecordinputactive2&#45;&gt;BuildUnblankedRecordinputactive20 -->
<g id="edge18" class="edge">
<title>BuildInputRecordinputactive2&#45;&gt;BuildUnblankedRecordinputactive20</title>
<path fill="none" stroke="#000000" d="M56.2507,-575.8472C56.2707,-560.8533 57.7994,-539.301 65,-522 66.3675,-518.7143 68.1313,-515.4868 70.1132,-512.3958"/>
<polygon fill="#000000" stroke="#000000" points="73.085,-514.2599 76.1279,-504.1114 67.4205,-510.1473 73.085,-514.2599"/>
<text text-anchor="middle" x="138" y="-536.3" font-family="Times,serif" font-size="14.00" fill="#000000">Key power Value: standby</text>
</g>
<!-- StandbyEnterinputactive20 -->
<g id="node18" class="node">
<title>StandbyEnterinputactive20</title>
<polygon fill="none" stroke="#00bcd4" points="188,-396 98,-396 98,-360 188,-360 188,-396"/>
<text text-anchor="middle" x="143" y="-374.3" font-family="Times,serif" font-size="14.00" fill="#000000">StandbyEnter</text>
</g>
<!-- BuildUnblankedRecordinputactive20&#45;&gt;StandbyEnterinputactive20 -->
<g id="edge19" class="edge">
<title>BuildUnblankedRecordinputactive20&#45;&gt;StandbyEnterinputactive20</title>
<path fill="none" stroke="#000000" d="M102.3122,-467.6793C110.0671,-450.5868 121.7386,-424.8619 130.5951,-405.3413"/>
<polygon fill="#000000" stroke="#000000" points="133.8661,-406.6028 134.8106,-396.0502 127.4915,-403.7106 133.8661,-406.6028"/>
</g>
<!-- StandbyEnterinputactive20&#45;&gt;powerstandby -->
<g id="edge20" class="edge">
<title>StandbyEnterinputactive20&#45;&gt;powerstandby</title>
<path fill="none" stroke="#000000" d="M141.9961,-359.9124C141.3506,-329.1934 144.8093,-266.871 180,-233 205.5456,-208.4124 295.012,-193.3679 361.0146,-185.3658"/>
<polygon fill="#000000" stroke="#000000" points="361.4614,-188.8375 370.9819,-184.1888 360.6404,-181.8858 361.4614,-188.8375"/>
</g>
<!-- InputStoreblank00&#45;&gt;blank -->
<g id="edge22" class="edge">
<title>InputStoreblank00&#45;&gt;blank</title>
<path fill="none" stroke="#000000" d="M438.5432,-342.1509C437.0902,-347.8136 435.7242,-354.1174 435,-360 433.2285,-374.3904 433.0623,-390.5216 433.4104,-403.8618"/>
<polygon fill="#000000" stroke="#000000" points="429.9134,-404.011 433.779,-413.8755 436.9087,-403.7535 429.9134,-404.011"/>
</g>
<!-- InputStoreblank1 -->
<g id="node21" class="node">
<title>InputStoreblank1</title>
<polygon fill="none" stroke="#00bcd4" points="263,-269 189,-269 189,-233 263,-233 263,-269"/>
<text text-anchor="middle" x="226" y="-247.3" font-family="Times,serif" font-size="14.00" fill="#000000">InputStore</text>
</g>
<!-- BuildBlankedRecordblank1&#45;&gt;InputStoreblank1 -->
<g id="edge24" class="edge">
<title>BuildBlankedRecordblank1&#45;&gt;InputStoreblank1</title>
<path fill="none" stroke="#000000" d="M507.3597,-309.4912C501.496,-308.278 495.6448,-307.0973 490,-306 394.8213,-287.4986 368.6706,-294.0422 275,-269 274.2777,-268.8069 273.551,-268.6075 272.8211,-268.4025"/>
<polygon fill="#000000" stroke="#000000" points="273.8158,-265.0468 263.2294,-265.4687 271.7683,-271.7407 273.8158,-265.0468"/>
</g>
<!-- InputStoreblank1&#45;&gt;inputactive -->
<g id="edge25" class="edge">
<title>InputStoreblank1&#45;&gt;inputactive</title>
<path fill="none" stroke="#000000" d="M225.6105,-269.2994C225.3297,-284.0636 225,-305.368 225,-324 225,-648 225,-648 225,-648 225,-676.5441 236.2007,-707.3555 245.9296,-728.7342"/>
<polygon fill="#000000" stroke="#000000" points="242.8049,-730.3136 250.2505,-737.851 249.1304,-727.3156 242.8049,-730.3136"/>
</g>
<!-- StandbyEnterblank2 -->
<g id="node23" class="node">
<title>StandbyEnterblank2</title>
<polygon fill="none" stroke="#00bcd4" points="374,-269 284,-269 284,-233 374,-233 374,-269"/>
<text text-anchor="middle" x="329" y="-247.3" font-family="Times,serif" font-size="14.00" fill="#000000">StandbyEnter</text>
</g>
<!-- BuildBlankedRecordblank2&#45;&gt;StandbyEnterblank2 -->
<g id="edge27" class="edge">
<title>BuildBlankedRecordblank2&#45;&gt;StandbyEnterblank2</title>
<path fill="none" stroke="#000000" d="M323.7303,-305.9551C324.5044,-297.8828 325.4351,-288.1764 326.2976,-279.1817"/>
<polygon fill="#000000" stroke="#000000" points="329.7947,-279.3788 327.2653,-269.0904 322.8267,-278.7106 329.7947,-279.3788"/>
</g>
<!-- StandbyEnterblank2&#45;&gt;powerstandby -->
<g id="edge28" class="edge">
<title>StandbyEnterblank2&#45;&gt;powerstandby</title>
<path fill="none" stroke="#000000" d="M355.4494,-232.9551C369.2104,-223.5667 386.2116,-211.9678 401.0431,-201.8491"/>
<polygon fill="#000000" stroke="#000000" points="403.1959,-204.6174 409.484,-196.0904 399.2508,-198.8349 403.1959,-204.6174"/>
</g>
<!-- PowerOnStorepowerstandby0 -->
<g id="node25" class="node">
<title>PowerOnStorepowerstandby0</title>
<polygon fill="none" stroke="#00bcd4" points="780,-36 684,-36 684,0 780,0 780,-36"/>
<text text-anchor="middle" x="732" y="-14.3" font-family="Times,serif" font-size="14.00" fill="#000000">PowerOnStore</text>
</g>
<!-- StandbyExitpowerstandby0&#45;&gt;PowerOnStorepowerstandby0 -->
<g id="edge30" class="edge">
<title>StandbyExitpowerstandby0&#45;&gt;PowerOnStorepowerstandby0</title>
<path fill="none" stroke="#000000" d="M694.3596,-72.9551C700.2491,-64.3564 707.4087,-53.9034 713.8961,-44.4316"/>
<polygon fill="#000000" stroke="#000000" points="716.846,-46.3185 719.6093,-36.0904 711.0708,-42.3628 716.846,-46.3185"/>
</g>
<!-- PowerOnStorepowerstandby0&#45;&gt;poweron -->
<g id="edge31" class="edge">
<title>PowerOnStorepowerstandby0&#45;&gt;poweron</title>
<path fill="none" stroke="#000000" d="M753.9246,-36.0501C767.7473,-49.5526 783,-69.3558 783,-91 783,-972 783,-972 783,-972 783,-998.0749 775.3747,-1008.0661 754,-1023 728.8619,-1040.5633 649.3939,-1050.3166 594.4543,-1055.1097"/>
<polygon fill="#000000" stroke="#000000" points="593.8303,-1051.6497 584.1587,-1055.9754 594.4168,-1058.6251 593.8303,-1051.6497"/>
</g>
<!-- InputStorepowerstandby10&#45;&gt;powerstandby -->
<g id="edge33" class="edge">
<title>InputStorepowerstandby10&#45;&gt;powerstandby</title>
<path fill="none" stroke="#000000" d="M435.1791,-109.2957C434.6947,-114.9642 434.2398,-121.2351 434,-127 433.6982,-134.257 433.7946,-142.0953 434.0653,-149.3988"/>
<polygon fill="#000000" stroke="#000000" points="430.5791,-149.7681 434.5605,-159.5864 437.5708,-149.4282 430.5791,-149.7681"/>
</g>
<!-- start -->
<g id="node27" class="node">
<title>start</title>
<polygon fill="none" stroke="#000000" points="567.2801,-1225.5442 567.2801,-1240.4558 550.714,-1251 527.286,-1251 510.7199,-1240.4558 510.7199,-1225.5442 527.286,-1215 550.714,-1215 567.2801,-1225.5442"/>
<text text-anchor="middle" x="539" y="-1229.3" font-family="Times,serif" font-size="14.00" fill="#000000">start</text>
</g>
<!-- PowerOnStorestart0 -->
<g id="node28" class="node">
<title>PowerOnStorestart0</title>
<polygon fill="none" stroke="#00bcd4" points="587,-1164 491,-1164 491,-1128 587,-1128 587,-1164"/>
<text text-anchor="middle" x="539" y="-1142.3" font-family="Times,serif" font-size="14.00" fill="#000000">PowerOnStore</text>
</g>
<!-- start&#45;&gt;PowerOnStorestart0 -->
<g id="edge34" class="edge">
<title>start&#45;&gt;PowerOnStorestart0</title>
<path fill="none" stroke="#000000" d="M539,-1214.9735C539,-1203.1918 539,-1187.5607 539,-1174.1581"/>
<polygon fill="#000000" stroke="#000000" points="542.5001,-1174.0033 539,-1164.0034 535.5001,-1174.0034 542.5001,-1174.0033"/>
<text text-anchor="middle" x="598" y="-1185.8" font-family="Times,serif" font-size="14.00" fill="#000000">Key power Value: on</text>
</g>
<!-- PowerOnStorestart0&#45;&gt;poweron -->
<g id="edge35" class="edge">
<title>PowerOnStorestart0&#45;&gt;poweron</title>
<path fill="none" stroke="#000000" d="M539,-1127.9735C539,-1116.1918 539,-1100.5607 539,-1087.1581"/>
<polygon fill="#000000" stroke="#000000" points="542.5001,-1087.0033 539,-1077.0034 535.5001,-1087.0034 542.5001,-1087.0033"/>
<text text-anchor="middle" x="598" y="-1098.8" font-family="Times,serif" font-size="14.00" fill="#000000">Key power Value: on</text>
</g>
</g>
</svg>
