<?xml version="1.0" encoding="UTF-8" standalone="no"?>
<!DOCTYPE svg PUBLIC "-//W3C//DTD SVG 1.1//EN"
 "http://www.w3.org/Graphics/SVG/1.1/DTD/svg11.dtd">
<!-- Generated by graphviz version 2.40.1 (20161225.0304)
 -->
<!-- Title: %3 Pages: 1 -->
<svg width="821pt" height="1259pt"
 viewBox="0.00 0.00 821.00 1259.00" xmlns="http://www.w3.org/2000/svg" xmlns:xlink="http://www.w3.org/1999/xlink">
<g id="graph0" class="graph" transform="scale(1 1) rotate(0) translate(4 1255)">
<title>%3</title>
<polygon fill="#ffffff" stroke="transparent" points="-4,4 -4,-1255 817,-1255 817,4 -4,4"/>
<!-- start -->
<g id="node1" class="node">
<title>start</title>
<polygon fill="none" stroke="#e53935" points="577.2801,-1225.5442 577.2801,-1240.4558 560.714,-1251 537.286,-1251 520.7199,-1240.4558 520.7199,-1225.5442 537.286,-1215 560.714,-1215 577.2801,-1225.5442"/>
<text text-anchor="middle" x="549" y="-1229.3" font-family="Times,serif" font-size="14.00" fill="#e53935">start</text>
</g>
<!-- PowerOnStorestart0 -->
<g id="node2" class="node">
<title>PowerOnStorestart0</title>
<polygon fill="none" stroke="#4caf50" points="597,-1164 501,-1164 501,-1128 597,-1128 597,-1164"/>
<text text-anchor="middle" x="549" y="-1142.3" font-family="Times,serif" font-size="14.00" fill="#4caf50">PowerOnStore</text>
</g>
<!-- start&#45;&gt;PowerOnStorestart0 -->
<g id="edge1" class="edge">
<title>start&#45;&gt;PowerOnStorestart0</title>
<path fill="none" stroke="#000000" d="M549,-1214.9735C549,-1203.1918 549,-1187.5607 549,-1174.1581"/>
<polygon fill="#000000" stroke="#000000" points="552.5001,-1174.0033 549,-1164.0034 545.5001,-1174.0034 552.5001,-1174.0033"/>
<text text-anchor="middle" x="608" y="-1185.8" font-family="Times,serif" font-size="14.00" fill="#000000">Key power Value: on</text>
</g>
<!-- poweron -->
<g id="node3" class="node">
<title>poweron</title>
<polygon fill="none" stroke="#e53935" points="594.0471,-1051.5442 594.0471,-1066.4558 567.6591,-1077 530.3409,-1077 503.9529,-1066.4558 503.9529,-1051.5442 530.3409,-1041 567.6591,-1041 594.0471,-1051.5442"/>
<text text-anchor="middle" x="549" y="-1055.3" font-family="Times,serif" font-size="14.00" fill="#e53935">poweron</text>
</g>
<!-- PowerOnStorestart0&#45;&gt;poweron -->
<g id="edge2" class="edge">
<title>PowerOnStorestart0&#45;&gt;poweron</title>
<path fill="none" stroke="#000000" d="M549,-1127.9735C549,-1116.1918 549,-1100.5607 549,-1087.1581"/>
<polygon fill="#000000" stroke="#000000" points="552.5001,-1087.0033 549,-1077.0034 545.5001,-1087.0034 552.5001,-1087.0033"/>
<text text-anchor="middle" x="608" y="-1098.8" font-family="Times,serif" font-size="14.00" fill="#000000">Key power Value: on</text>
</g>
<!-- BuildInputRecordpoweron0 -->
<g id="node4" class="node">
<title>BuildInputRecordpoweron0</title>
<polygon fill="none" stroke="#7e57c2" points="388,-990 274,-990 274,-954 388,-954 388,-990"/>
<text text-anchor="middle" x="331" y="-968.3" font-family="Times,serif" font-size="14.00" fill="#7e57c2">BuildInputRecord</text>
</g>
<!-- poweron&#45;&gt;BuildInputRecordpoweron0 -->
<g id="edge3" class="edge">
<title>poweron&#45;&gt;BuildInputRecordpoweron0</title>
<path fill="none" stroke="#000000" d="M503.7011,-1056.6757C450.5136,-1053.0101 366.6579,-1044.0034 344,-1023 337.6162,-1017.0823 334.1834,-1008.5064 332.3892,-1000.0701"/>
<polygon fill="#000000" stroke="#000000" points="335.8325,-999.4269 330.9253,-990.0371 328.9059,-1000.4377 335.8325,-999.4269"/>
<text text-anchor="middle" x="396.5" y="-1011.8" font-family="Times,serif" font-size="14.00" fill="#000000">Key input Value: *</text>
</g>
<!-- BuildInputRecordpoweron1 -->
<g id="node7" class="node">
<title>BuildInputRecordpoweron1</title>
<polygon fill="none" stroke="#7e57c2" points="544,-936 430,-936 430,-900 544,-900 544,-936"/>
<text text-anchor="middle" x="487" y="-914.3" font-family="Times,serif" font-size="14.00" fill="#7e57c2">BuildInputRecord</text>
</g>
<!-- poweron&#45;&gt;BuildInputRecordpoweron1 -->
<g id="edge6" class="edge">
<title>poweron&#45;&gt;BuildInputRecordpoweron1</title>
<path fill="none" stroke="#000000" d="M508.5131,-1049.6907C494.4925,-1044.317 480.2395,-1035.9479 472,-1023 457.2739,-999.859 464.7634,-968.0984 473.6014,-945.5839"/>
<polygon fill="#000000" stroke="#000000" points="476.8755,-946.8276 477.546,-936.254 470.428,-944.1017 476.8755,-946.8276"/>
<text text-anchor="middle" x="539" y="-1011.8" font-family="Times,serif" font-size="14.00" fill="#000000">Key blanked Value: true</text>
</g>
<!-- BuildInputRecordpoweron2 -->
<g id="node10" class="node">
<title>BuildInputRecordpoweron2</title>
<polygon fill="none" stroke="#7e57c2" points="680,-936 566,-936 566,-900 680,-900 680,-936"/>
<text text-anchor="middle" x="623" y="-914.3" font-family="Times,serif" font-size="14.00" fill="#7e57c2">BuildInputRecord</text>
</g>
<!-- poweron&#45;&gt;BuildInputRecordpoweron2 -->
<g id="edge9" class="edge">
<title>poweron&#45;&gt;BuildInputRecordpoweron2</title>
<path fill="none" stroke="#000000" d="M580.109,-1045.723C589.8404,-1040.0876 599.6758,-1032.5692 606,-1023 620.9624,-1000.3604 624.3487,-969.1134 624.5187,-946.601"/>
<polygon fill="#000000" stroke="#000000" points="628.0148,-946.2791 624.3804,-936.3272 621.0154,-946.3734 628.0148,-946.2791"/>
<text text-anchor="middle" x="686" y="-1011.8" font-family="Times,serif" font-size="14.00" fill="#000000">Key power Value: standby</text>
</g>
<!-- InputStorepoweron0 -->
<g id="node5" class="node">
<title>InputStorepoweron0</title>
<polygon fill="none" stroke="#4caf50" points="350,-882 276,-882 276,-846 350,-846 350,-882"/>
<text text-anchor="middle" x="313" y="-860.3" font-family="Times,serif" font-size="14.00" fill="#4caf50">InputStore</text>
</g>
<!-- BuildInputRecordpoweron0&#45;&gt;InputStorepoweron0 -->
<g id="edge4" class="edge">
<title>BuildInputRecordpoweron0&#45;&gt;InputStorepoweron0</title>
<path fill="none" stroke="#000000" d="M327.9465,-953.6793C325.1368,-936.821 320.9275,-911.5651 317.6912,-892.147"/>
<polygon fill="#000000" stroke="#000000" points="321.1048,-891.3387 316.0084,-882.0502 314.2001,-892.4895 321.1048,-891.3387"/>
</g>
<!-- inputactive -->
<g id="node6" class="node">
<title>inputactive</title>
<polygon fill="none" stroke="#e53935" points="315.3384,-748.5442 315.3384,-763.4558 283.5077,-774 238.4923,-774 206.6616,-763.4558 206.6616,-748.5442 238.4923,-738 283.5077,-738 315.3384,-748.5442"/>
<text text-anchor="middle" x="261" y="-752.3" font-family="Times,serif" font-size="14.00" fill="#e53935">inputactive</text>
</g>
<!-- InputStorepoweron0&#45;&gt;inputactive -->
<g id="edge5" class="edge">
<title>InputStorepoweron0&#45;&gt;inputactive</title>
<path fill="none" stroke="#000000" d="M304.1789,-845.6793C295.9116,-828.5088 283.45,-802.6268 274.0358,-783.0743"/>
<polygon fill="#000000" stroke="#000000" points="277.1825,-781.5418 269.6908,-774.0502 270.8755,-784.5786 277.1825,-781.5418"/>
</g>
<!-- BuildInputRecordinputactive0 -->
<g id="node14" class="node">
<title>BuildInputRecordinputactive0</title>
<polygon fill="none" stroke="#7e57c2" points="551,-666 437,-666 437,-630 551,-630 551,-666"/>
<text text-anchor="middle" x="494" y="-644.3" font-family="Times,serif" font-size="14.00" fill="#7e57c2">BuildInputRecord</text>
</g>
<!-- inputactive&#45;&gt;BuildInputRecordinputactive0 -->
<g id="edge13" class="edge">
<title>inputactive&#45;&gt;BuildInputRecordinputactive0</title>
<path fill="none" stroke="#000000" d="M315.534,-751.7059C348.3317,-747.276 389.9784,-738.2776 423,-720 425.8942,-718.3981 449.9977,-693.7182 469.3294,-673.6942"/>
<polygon fill="#000000" stroke="#000000" points="472.0311,-675.9346 476.4506,-666.3055 466.9909,-671.0768 472.0311,-675.9346"/>
<text text-anchor="middle" x="510.5" y="-698.3" font-family="Times,serif" font-size="14.00" fill="#000000">Key input Value: *</text>
</g>
<!-- BuildInputRecordinputactive1 -->
<g id="node16" class="node">
<title>BuildInputRecordinputactive1</title>
<polygon fill="none" stroke="#7e57c2" points="370,-666 256,-666 256,-630 370,-630 370,-666"/>
<text text-anchor="middle" x="313" y="-644.3" font-family="Times,serif" font-size="14.00" fill="#7e57c2">BuildInputRecord</text>
</g>
<!-- inputactive&#45;&gt;BuildInputRecordinputactive1 -->
<g id="edge16" class="edge">
<title>inputactive&#45;&gt;BuildInputRecordinputactive1</title>
<path fill="none" stroke="#000000" d="M256.5242,-737.7323C253.7937,-722.473 252.298,-700.6084 261,-684 263.1507,-679.8953 266.0054,-676.1656 269.2737,-672.7988"/>
<polygon fill="#000000" stroke="#000000" points="271.7931,-675.2436 276.9764,-666.0033 267.162,-669.9945 271.7931,-675.2436"/>
<text text-anchor="middle" x="328" y="-698.3" font-family="Times,serif" font-size="14.00" fill="#000000">Key blanked Value: true</text>
</g>
<!-- BuildInputRecordinputactive2 -->
<g id="node18" class="node">
<title>BuildInputRecordinputactive2</title>
<polygon fill="none" stroke="#7e57c2" points="114,-612 0,-612 0,-576 114,-576 114,-612"/>
<text text-anchor="middle" x="57" y="-590.3" font-family="Times,serif" font-size="14.00" fill="#7e57c2">BuildInputRecord</text>
</g>
<!-- inputactive&#45;&gt;BuildInputRecordinputactive2 -->
<g id="edge19" class="edge">
<title>inputactive&#45;&gt;BuildInputRecordinputactive2</title>
<path fill="none" stroke="#000000" d="M206.3999,-753.1263C155.6496,-749.221 85.227,-740.2342 67,-720 43.298,-693.6878 45.5055,-650.477 50.375,-622.1299"/>
<polygon fill="#000000" stroke="#000000" points="53.86,-622.5424 52.3232,-612.0597 46.9875,-621.2128 53.86,-622.5424"/>
<text text-anchor="middle" x="140" y="-698.3" font-family="Times,serif" font-size="14.00" fill="#000000">Key power Value: standby</text>
</g>
<!-- EnterBlankpoweron1 -->
<g id="node8" class="node">
<title>EnterBlankpoweron1</title>
<polygon fill="none" stroke="#4caf50" points="582,-828 504,-828 504,-792 582,-792 582,-828"/>
<text text-anchor="middle" x="543" y="-806.3" font-family="Times,serif" font-size="14.00" fill="#4caf50">EnterBlank</text>
</g>
<!-- BuildInputRecordpoweron1&#45;&gt;EnterBlankpoweron1 -->
<g id="edge7" class="edge">
<title>BuildInputRecordpoweron1&#45;&gt;EnterBlankpoweron1</title>
<path fill="none" stroke="#000000" d="M496.4996,-899.6793C505.4029,-882.5088 518.8231,-856.6268 528.9615,-837.0743"/>
<polygon fill="#000000" stroke="#000000" points="532.1446,-838.5388 533.6407,-828.0502 525.9303,-835.3166 532.1446,-838.5388"/>
</g>
<!-- blank -->
<g id="node9" class="node">
<title>blank</title>
<polygon fill="none" stroke="#e53935" points="471.1284,-424.5442 471.1284,-439.4558 451.7222,-450 424.2778,-450 404.8716,-439.4558 404.8716,-424.5442 424.2778,-414 451.7222,-414 471.1284,-424.5442"/>
<text text-anchor="middle" x="438" y="-428.3" font-family="Times,serif" font-size="14.00" fill="#e53935">blank</text>
</g>
<!-- EnterBlankpoweron1&#45;&gt;blank -->
<g id="edge8" class="edge">
<title>EnterBlankpoweron1&#45;&gt;blank</title>
<path fill="none" stroke="#000000" d="M553.028,-791.8839C563.6801,-770.9093 579,-735.0063 579,-702 579,-702 579,-702 579,-540 579,-489.1874 520.5754,-459.0409 478.9428,-444.0093"/>
<polygon fill="#000000" stroke="#000000" points="479.8872,-440.6328 469.2925,-440.6827 477.6059,-447.2507 479.8872,-440.6328"/>
</g>
<!-- InputStoreblank00 -->
<g id="node21" class="node">
<title>InputStoreblank00</title>
<polygon fill="none" stroke="#000000" points="485,-342 411,-342 411,-306 485,-306 485,-342"/>
<text text-anchor="middle" x="448" y="-320.3" font-family="Times,serif" font-size="14.00" fill="#000000">InputStore</text>
</g>
<!-- blank&#45;&gt;InputStoreblank00 -->
<g id="edge23" class="edge">
<title>blank&#45;&gt;InputStoreblank00</title>
<path fill="none" stroke="#000000" d="M439.6964,-413.6793C441.2573,-396.821 443.5958,-371.5651 445.3938,-352.147"/>
<polygon fill="#000000" stroke="#000000" points="448.8917,-352.3303 446.3287,-342.0502 441.9215,-351.6848 448.8917,-352.3303"/>
<text text-anchor="middle" x="497.5" y="-374.3" font-family="Times,serif" font-size="14.00" fill="#000000">Key input Value: *</text>
</g>
<!-- BuildBlankedRecordblank1 -->
<g id="node22" class="node">
<title>BuildBlankedRecordblank1</title>
<polygon fill="none" stroke="#7e57c2" points="641.5,-342 510.5,-342 510.5,-306 641.5,-306 641.5,-342"/>
<text text-anchor="middle" x="576" y="-320.3" font-family="Times,serif" font-size="14.00" fill="#7e57c2">BuildBlankedRecord</text>
</g>
<!-- blank&#45;&gt;BuildBlankedRecordblank1 -->
<g id="edge25" class="edge">
<title>blank&#45;&gt;BuildBlankedRecordblank1</title>
<path fill="none" stroke="#000000" d="M471.1007,-425.3389C501.0765,-418.682 542.2838,-407.7676 554,-396 565.5023,-384.4473 571.0187,-367.0607 573.6517,-352.2673"/>
<polygon fill="#000000" stroke="#000000" points="577.1584,-352.4679 575.1037,-342.0742 570.2284,-351.4807 577.1584,-352.4679"/>
<text text-anchor="middle" x="640.5" y="-374.3" font-family="Times,serif" font-size="14.00" fill="#000000">Key blanked Value: false</text>
</g>
<!-- BuildBlankedRecordblank2 -->
<g id="node24" class="node">
<title>BuildBlankedRecordblank2</title>
<polygon fill="none" stroke="#7e57c2" points="389.5,-342 258.5,-342 258.5,-306 389.5,-306 389.5,-342"/>
<text text-anchor="middle" x="324" y="-320.3" font-family="Times,serif" font-size="14.00" fill="#7e57c2">BuildBlankedRecord</text>
</g>
<!-- blank&#45;&gt;BuildBlankedRecordblank2 -->
<g id="edge28" class="edge">
<title>blank&#45;&gt;BuildBlankedRecordblank2</title>
<path fill="none" stroke="#000000" d="M404.8834,-428.831C364.9576,-424.2462 301.4049,-414.2429 287,-396 277.0846,-383.4427 280.776,-374.7398 287,-360 288.4817,-356.491 290.4912,-353.1549 292.8124,-350.0309"/>
<polygon fill="#000000" stroke="#000000" points="295.6245,-352.1306 299.5364,-342.2844 290.3382,-347.542 295.6245,-352.1306"/>
<text text-anchor="middle" x="360" y="-374.3" font-family="Times,serif" font-size="14.00" fill="#000000">Key power Value: standby</text>
</g>
<!-- BuildUnblankedRecordpoweron20 -->
<g id="node11" class="node">
<title>BuildUnblankedRecordpoweron20</title>
<polygon fill="none" stroke="#000000" points="757.5,-828 612.5,-828 612.5,-792 757.5,-792 757.5,-828"/>
<text text-anchor="middle" x="685" y="-806.3" font-family="Times,serif" font-size="14.00" fill="#000000">BuildUnblankedRecord</text>
</g>
<!-- BuildInputRecordpoweron2&#45;&gt;BuildUnblankedRecordpoweron20 -->
<g id="edge10" class="edge">
<title>BuildInputRecordpoweron2&#45;&gt;BuildUnblankedRecordpoweron20</title>
<path fill="none" stroke="#000000" d="M620.9505,-899.7861C620.1174,-884.3577 621.1266,-862.2228 631,-846 633.539,-841.8282 636.7662,-838.0371 640.3758,-834.6173"/>
<polygon fill="#000000" stroke="#000000" points="642.7556,-837.1909 648.2241,-828.1164 638.2903,-831.8001 642.7556,-837.1909"/>
<text text-anchor="middle" x="704" y="-860.3" font-family="Times,serif" font-size="14.00" fill="#000000">Key power Value: standby</text>
</g>
<!-- StandbyEnterpoweron20 -->
<g id="node12" class="node">
<title>StandbyEnterpoweron20</title>
<polygon fill="none" stroke="#4caf50" points="763,-720 673,-720 673,-684 763,-684 763,-720"/>
<text text-anchor="middle" x="718" y="-698.3" font-family="Times,serif" font-size="14.00" fill="#4caf50">StandbyEnter</text>
</g>
<!-- BuildUnblankedRecordpoweron20&#45;&gt;StandbyEnterpoweron20 -->
<g id="edge11" class="edge">
<title>BuildUnblankedRecordpoweron20&#45;&gt;StandbyEnterpoweron20</title>
<path fill="none" stroke="#000000" d="M690.598,-791.6793C695.773,-774.7429 703.5377,-749.3311 709.4818,-729.8777"/>
<polygon fill="#000000" stroke="#000000" points="712.9097,-730.6365 712.4847,-720.0502 706.2152,-728.5909 712.9097,-730.6365"/>
</g>
<!-- powerstandby -->
<g id="node13" class="node">
<title>powerstandby</title>
<polygon fill="none" stroke="#e53935" points="510.9434,-170.5442 510.9434,-185.4558 472.9004,-196 419.0996,-196 381.0566,-185.4558 381.0566,-170.5442 419.0996,-160 472.9004,-160 510.9434,-170.5442"/>
<text text-anchor="middle" x="446" y="-174.3" font-family="Times,serif" font-size="14.00" fill="#e53935">powerstandby</text>
</g>
<!-- StandbyEnterpoweron20&#45;&gt;powerstandby -->
<g id="edge12" class="edge">
<title>StandbyEnterpoweron20&#45;&gt;powerstandby</title>
<path fill="none" stroke="#000000" d="M722.9186,-683.8091C728.248,-662.4667 736,-625.9345 736,-594 736,-594 736,-594 736,-251 736,-206.6778 607.0007,-189.0049 521.0748,-182.1494"/>
<polygon fill="#000000" stroke="#000000" points="521.3195,-178.658 511.0817,-181.3849 520.7855,-185.6376 521.3195,-178.658"/>
</g>
<!-- StandbyExitpowerstandby0 -->
<g id="node26" class="node">
<title>StandbyExitpowerstandby0</title>
<polygon fill="none" stroke="#7e57c2" points="731.5,-109 648.5,-109 648.5,-73 731.5,-73 731.5,-109"/>
<text text-anchor="middle" x="690" y="-87.3" font-family="Times,serif" font-size="14.00" fill="#7e57c2">StandbyExit</text>
</g>
<!-- powerstandby&#45;&gt;StandbyExitpowerstandby0 -->
<g id="edge31" class="edge">
<title>powerstandby&#45;&gt;StandbyExitpowerstandby0</title>
<path fill="none" stroke="#000000" d="M488.9955,-164.45C509.3796,-157.893 534.0252,-149.7727 556,-142 583.4501,-132.2906 613.7915,-120.8063 638.6509,-111.1963"/>
<polygon fill="#000000" stroke="#000000" points="640.1835,-114.356 648.2413,-107.4769 637.6523,-107.8296 640.1835,-114.356"/>
<text text-anchor="middle" x="655" y="-130.8" font-family="Times,serif" font-size="14.00" fill="#000000">Key power Value: on</text>
</g>
<!-- InputStorepowerstandby10 -->
<g id="node28" class="node">
<title>InputStorepowerstandby10</title>
<polygon fill="none" stroke="#000000" points="484,-109 410,-109 410,-73 484,-73 484,-109"/>
<text text-anchor="middle" x="447" y="-87.3" font-family="Times,serif" font-size="14.00" fill="#000000">InputStore</text>
</g>
<!-- powerstandby&#45;&gt;InputStorepowerstandby10 -->
<g id="edge34" class="edge">
<title>powerstandby&#45;&gt;InputStorepowerstandby10</title>
<path fill="none" stroke="#000000" d="M446.2072,-159.9735C446.3426,-148.1918 446.5223,-132.5607 446.6763,-119.1581"/>
<polygon fill="#000000" stroke="#000000" points="450.1778,-119.043 446.7931,-109.0034 443.1783,-118.9624 450.1778,-119.043"/>
<text text-anchor="middle" x="499.5" y="-130.8" font-family="Times,serif" font-size="14.00" fill="#000000">Key input Value: *</text>
</g>
<!-- InputStoreinputactive0 -->
<g id="node15" class="node">
<title>InputStoreinputactive0</title>
<polygon fill="none" stroke="#4caf50" points="473,-558 399,-558 399,-522 473,-522 473,-558"/>
<text text-anchor="middle" x="436" y="-536.3" font-family="Times,serif" font-size="14.00" fill="#4caf50">InputStore</text>
</g>
<!-- BuildInputRecordinputactive0&#45;&gt;InputStoreinputactive0 -->
<g id="edge14" class="edge">
<title>BuildInputRecordinputactive0&#45;&gt;InputStoreinputactive0</title>
<path fill="none" stroke="#000000" d="M484.1611,-629.6793C474.9399,-612.5088 461.0403,-586.6268 450.5399,-567.0743"/>
<polygon fill="#000000" stroke="#000000" points="453.5084,-565.2042 445.6936,-558.0502 447.3414,-568.5161 453.5084,-565.2042"/>
</g>
<!-- InputStoreinputactive0&#45;&gt;inputactive -->
<g id="edge15" class="edge">
<title>InputStoreinputactive0&#45;&gt;inputactive</title>
<path fill="none" stroke="#000000" d="M434.2284,-558.1412C429.8718,-599.062 417.3337,-696.7894 395,-720 384.6834,-730.7217 353.1198,-739.4788 323.2175,-745.6706"/>
<polygon fill="#000000" stroke="#000000" points="322.2971,-742.2851 313.1735,-747.6712 323.6646,-749.1502 322.2971,-742.2851"/>
</g>
<!-- EnterBlankinputactive1 -->
<g id="node17" class="node">
<title>EnterBlankinputactive1</title>
<polygon fill="none" stroke="#4caf50" points="380,-558 302,-558 302,-522 380,-522 380,-558"/>
<text text-anchor="middle" x="341" y="-536.3" font-family="Times,serif" font-size="14.00" fill="#4caf50">EnterBlank</text>
</g>
<!-- BuildInputRecordinputactive1&#45;&gt;EnterBlankinputactive1 -->
<g id="edge17" class="edge">
<title>BuildInputRecordinputactive1&#45;&gt;EnterBlankinputactive1</title>
<path fill="none" stroke="#000000" d="M317.7498,-629.6793C322.1407,-612.7429 328.729,-587.3311 333.7725,-567.8777"/>
<polygon fill="#000000" stroke="#000000" points="337.1986,-568.6085 336.3203,-558.0502 330.4226,-566.8517 337.1986,-568.6085"/>
</g>
<!-- EnterBlankinputactive1&#45;&gt;blank -->
<g id="edge18" class="edge">
<title>EnterBlankinputactive1&#45;&gt;blank</title>
<path fill="none" stroke="#000000" d="M357.4547,-521.6793C373.4878,-503.828 397.9779,-476.5607 415.7445,-456.7794"/>
<polygon fill="#000000" stroke="#000000" points="418.3506,-459.1156 422.4287,-449.3371 413.1427,-454.4382 418.3506,-459.1156"/>
</g>
<!-- BuildUnblankedRecordinputactive20 -->
<g id="node19" class="node">
<title>BuildUnblankedRecordinputactive20</title>
<polygon fill="none" stroke="#000000" points="168.5,-504 23.5,-504 23.5,-468 168.5,-468 168.5,-504"/>
<text text-anchor="middle" x="96" y="-482.3" font-family="Times,serif" font-size="14.00" fill="#000000">BuildUnblankedRecord</text>
</g>
<!-- BuildInputRecordinputactive2&#45;&gt;BuildUnblankedRecordinputactive20 -->
<g id="edge20" class="edge">
<title>BuildInputRecordinputactive2&#45;&gt;BuildUnblankedRecordinputactive20</title>
<path fill="none" stroke="#000000" d="M56.8698,-575.8257C57.3747,-560.8189 59.5381,-539.2598 67,-522 68.4123,-518.7333 70.2054,-515.5182 72.2051,-512.4348"/>
<polygon fill="#000000" stroke="#000000" points="75.1758,-514.3014 78.2429,-504.1602 69.5211,-510.1753 75.1758,-514.3014"/>
<text text-anchor="middle" x="140" y="-536.3" font-family="Times,serif" font-size="14.00" fill="#000000">Key power Value: standby</text>
</g>
<!-- StandbyEnterinputactive20 -->
<g id="node20" class="node">
<title>StandbyEnterinputactive20</title>
<polygon fill="none" stroke="#4caf50" points="197,-396 107,-396 107,-360 197,-360 197,-396"/>
<text text-anchor="middle" x="152" y="-374.3" font-family="Times,serif" font-size="14.00" fill="#4caf50">StandbyEnter</text>
</g>
<!-- BuildUnblankedRecordinputactive20&#45;&gt;StandbyEnterinputactive20 -->
<g id="edge21" class="edge">
<title>BuildUnblankedRecordinputactive20&#45;&gt;StandbyEnterinputactive20</title>
<path fill="none" stroke="#000000" d="M105.4996,-467.6793C114.4029,-450.5088 127.8231,-424.6268 137.9615,-405.0743"/>
<polygon fill="#000000" stroke="#000000" points="141.1446,-406.5388 142.6407,-396.0502 134.9303,-403.3166 141.1446,-406.5388"/>
</g>
<!-- StandbyEnterinputactive20&#45;&gt;powerstandby -->
<g id="edge22" class="edge">
<title>StandbyEnterinputactive20&#45;&gt;powerstandby</title>
<path fill="none" stroke="#000000" d="M151.8384,-359.8584C152.6058,-329.0579 158.8513,-266.616 195,-233 220.2723,-209.4984 306.6819,-194.3143 371.0963,-185.9785"/>
<polygon fill="#000000" stroke="#000000" points="371.7498,-189.4239 381.2328,-184.6993 370.8733,-182.479 371.7498,-189.4239"/>
</g>
<!-- InputStoreblank00&#45;&gt;blank -->
<g id="edge24" class="edge">
<title>InputStoreblank00&#45;&gt;blank</title>
<path fill="none" stroke="#000000" d="M441.9386,-342.1134C440.3242,-347.7745 438.806,-354.087 438,-360 436.0418,-374.3662 435.8581,-390.4951 436.2428,-403.8401"/>
<polygon fill="#000000" stroke="#000000" points="432.7467,-404.0093 436.6503,-413.8588 439.741,-403.7248 432.7467,-404.0093"/>
</g>
<!-- InputStoreblank1 -->
<g id="node23" class="node">
<title>InputStoreblank1</title>
<polygon fill="none" stroke="#4caf50" points="278,-269 204,-269 204,-233 278,-233 278,-269"/>
<text text-anchor="middle" x="241" y="-247.3" font-family="Times,serif" font-size="14.00" fill="#4caf50">InputStore</text>
</g>
<!-- BuildBlankedRecordblank1&#45;&gt;InputStoreblank1 -->
<g id="edge26" class="edge">
<title>BuildBlankedRecordblank1&#45;&gt;InputStoreblank1</title>
<path fill="none" stroke="#000000" d="M510.2337,-309.4378C504.7451,-308.2607 499.2791,-307.1015 494,-306 411.0639,-288.6943 389.4759,-288.3804 307,-269 300.8541,-267.5558 294.4149,-265.9353 288.0692,-264.274"/>
<polygon fill="#000000" stroke="#000000" points="288.7942,-260.845 278.2299,-261.6492 286.9898,-267.6085 288.7942,-260.845"/>
</g>
<!-- InputStoreblank1&#45;&gt;inputactive -->
<g id="edge27" class="edge">
<title>InputStoreblank1&#45;&gt;inputactive</title>
<path fill="none" stroke="#000000" d="M235.5471,-269.1157C231.6162,-283.776 227,-305.0303 227,-324 227,-648 227,-648 227,-648 227,-676.4676 237.8807,-707.289 247.3316,-728.6909"/>
<polygon fill="#000000" stroke="#000000" points="244.1713,-730.1958 251.5291,-737.8191 250.5311,-727.2713 244.1713,-730.1958"/>
</g>
<!-- StandbyEnterblank2 -->
<g id="node25" class="node">
<title>StandbyEnterblank2</title>
<polygon fill="none" stroke="#4caf50" points="406,-269 316,-269 316,-233 406,-233 406,-269"/>
<text text-anchor="middle" x="361" y="-247.3" font-family="Times,serif" font-size="14.00" fill="#4caf50">StandbyEnter</text>
</g>
<!-- BuildBlankedRecordblank2&#45;&gt;StandbyEnterblank2 -->
<g id="edge29" class="edge">
<title>BuildBlankedRecordblank2&#45;&gt;StandbyEnterblank2</title>
<path fill="none" stroke="#000000" d="M333.1461,-305.9551C337.4154,-297.5319 342.5865,-287.3292 347.3086,-278.0128"/>
<polygon fill="#000000" stroke="#000000" points="350.4318,-279.5924 351.8309,-269.0904 344.188,-276.4277 350.4318,-279.5924"/>
</g>
<!-- StandbyEnterblank2&#45;&gt;powerstandby -->
<g id="edge30" class="edge">
<title>StandbyEnterblank2&#45;&gt;powerstandby</title>
<path fill="none" stroke="#000000" d="M382.0112,-232.9551C392.6364,-223.8299 405.6932,-212.6165 417.2355,-202.7036"/>
<polygon fill="#000000" stroke="#000000" points="419.6299,-205.2609 424.9359,-196.0904 415.0692,-199.9505 419.6299,-205.2609"/>
</g>
<!-- PowerOnStorepowerstandby0 -->
<g id="node27" class="node">
<title>PowerOnStorepowerstandby0</title>
<polygon fill="none" stroke="#4caf50" points="813,-36 717,-36 717,0 813,0 813,-36"/>
<text text-anchor="middle" x="765" y="-14.3" font-family="Times,serif" font-size="14.00" fill="#4caf50">PowerOnStore</text>
</g>
<!-- StandbyExitpowerstandby0&#45;&gt;PowerOnStorepowerstandby0 -->
<g id="edge32" class="edge">
<title>StandbyExitpowerstandby0&#45;&gt;PowerOnStorepowerstandby0</title>
<path fill="none" stroke="#000000" d="M708.5393,-72.9551C717.7342,-64.0054 728.9928,-53.047 739.0305,-43.2769"/>
<polygon fill="#000000" stroke="#000000" points="741.6892,-45.5734 746.414,-36.0904 736.8068,-40.5572 741.6892,-45.5734"/>
</g>
<!-- PowerOnStorepowerstandby0&#45;&gt;poweron -->
<g id="edge33" class="edge">
<title>PowerOnStorepowerstandby0&#45;&gt;poweron</title>
<path fill="none" stroke="#000000" d="M775.4254,-36.2688C782.6588,-50.6638 791,-71.4925 791,-91 791,-972 791,-972 791,-972 791,-997.8581 784.0801,-1008.0243 763,-1023 738.1858,-1040.6285 659.4377,-1050.3456 604.7274,-1055.1153"/>
<polygon fill="#000000" stroke="#000000" points="604.1418,-1051.652 594.4697,-1055.9766 604.7276,-1058.6275 604.1418,-1051.652"/>
</g>
<!-- InputStorepowerstandby10&#45;&gt;powerstandby -->
<g id="edge35" class="edge">
<title>InputStorepowerstandby10&#45;&gt;powerstandby</title>
<path fill="none" stroke="#000000" d="M445.1791,-109.2957C444.6947,-114.9642 444.2398,-121.2351 444,-127 443.6982,-134.257 443.7946,-142.0953 444.0653,-149.3988"/>
<polygon fill="#000000" stroke="#000000" points="440.5791,-149.7681 444.5605,-159.5864 447.5708,-149.4282 440.5791,-149.7681"/>
</g>
</g>
</svg>
